<svg height="512pt" viewBox="0 0 512 512" width="512pt" xmlns="http://www.w3.org/2000/svg" xmlns:xlink="http://www.w3.org/1999/xlink"><linearGradient id="a" gradientUnits="userSpaceOnUse" x1="0" x2="512" y1="256" y2="256"><stop offset="0" stop-color="#00f38d"/><stop offset="1" stop-color="#009eff"/></linearGradient><path d="m512 256c0 141.386719-114.613281 256-256 256s-256-114.613281-256-256 114.613281-256 256-256 256 114.613281 256 256zm0 0" fill="url(#a)"/><g fill="#fff"><path d="m111.996094 217.222656v-3.734375c0-59.9375 48.765625-108.703125 108.703125-108.703125 56.316406 0 102.765625 43.046875 108.175781 97.964844l26.410156 24.097656c.304688-3.25.472656-6.460937.472656-9.625v-3.734375c0-74.46875-60.585937-135.054687-135.058593-135.054687-74.46875 0-135.054688 60.585937-135.054688 135.054687v3.734375c0 37.664063 21.589844 81.550782 64.179688 130.445313 30.871093 35.445312 61.3125 60.160156 62.59375 61.195312l8.28125 6.691407v-34.246094c-26.703125-23.398438-108.703125-100.441406-108.703125-164.085938zm0 0"/><path d="m301.734375 322.851562h39.527344v39.527344h-39.527344zm0 0"/><path d="m162.875 213.488281c0 31.882813 25.941406 57.824219 57.824219 57.824219 31.882812 0 57.824219-25.941406 57.824219-57.824219 0-31.882812-25.941407-57.824219-57.824219-57.824219-31.882813 0-57.824219 25.941407-57.824219 57.824219zm85.648438 0c0 15.339844-12.484376 27.824219-27.824219 27.824219-15.339844 0-27.824219-12.480469-27.824219-27.824219 0-15.339843 12.480469-27.824219 27.824219-27.824219 15.339843 0 27.824219 12.484376 27.824219 27.824219zm0 0"/><path d="m426.355469 324.886719-105.1875-95.960938-105.1875 95.960938 20.21875 22.164062 5.703125-5.203125v38.171875c0 20.703125 16.84375 37.546875 37.550781 37.546875h83.433594c20.707031 0 37.550781-16.84375 37.550781-37.546875v-38.171875l5.703125 5.203125zm-55.921875 55.132812c0 4.160157-3.386719 7.546875-7.546875 7.546875h-83.4375c-4.164063 0-7.550781-3.386718-7.550781-7.546875v-65.542969l49.269531-44.945312 49.265625 44.945312zm0 0"/></g></svg>