<?xml version="1.0"?>
<svg xmlns="http://www.w3.org/2000/svg" height="512px" viewBox="0 0 512 512" width="512px" class=""><g><path d="m390 152c5.519531 0 10-4.480469 10-10s-4.480469-10-10-10-10 4.480469-10 10 4.480469 10 10 10zm0 0" data-original="#000000" class="active-path" data-old_color="#000000" fill="#FFC914"/><path d="m502 92h-152c-5.523438 0-10 4.476562-10 10v70h-100v-122c0-5.523438-4.476562-10-10-10h-70v-30c0-5.523438-4.476562-10-10-10s-10 4.476562-10 10v30h-70c-5.523438 0-10 4.476562-10 10v242h-50c-5.523438 0-10 4.476562-10 10v200c0 5.523438 4.476562 10 10 10h492c5.523438 0 10-4.476562 10-10v-400c0-5.523438-4.476562-10-10-10zm-162 400h-120v-20h90c5.523438 0 10-4.476562 10-10v-40c0-5.523438-4.476562-10-10-10h-90v-40h90c5.523438 0 10-4.476562 10-10v-40c0-5.523438-4.476562-10-10-10h-90v-10c0-5.523438-4.476562-10-10-10h-30v-100h160zm-40-160v20h-30v-20zm-50 20h-30v-20h30zm50 80v20h-30v-20zm-50 20h-30v-20h30zm-170-392h140v112h-50c-5.523438 0-10 4.476562-10 10v110h-80zm-60 252h180v180c-8.664062 0-172.179688 0-180 0zm340 180v-380h132v20h-62c-5.523438 0-10 4.476562-10 10s4.476562 10 10 10h62v40h-102c-5.523438 0-10 4.476562-10 10s4.476562 10 10 10h102v40h-102c-5.523438 0-10 4.476562-10 10s4.476562 10 10 10h102v40h-102c-5.523438 0-10 4.476562-10 10s4.476562 10 10 10h102v40h-102c-5.523438 0-10 4.476562-10 10s4.476562 10 10 10h102v40h-102c-5.523438 0-10 4.476562-10 10s4.476562 10 10 10h102v40c-13.03125 0-109.539062 0-132 0zm0 0" data-original="#000000" class="active-path" data-old_color="#000000" fill="#FFC914"/><path d="m90 332h-40c-5.523438 0-10 4.476562-10 10v40c0 5.523438 4.476562 10 10 10h40c5.523438 0 10-4.476562 10-10v-40c0-5.523438-4.476562-10-10-10zm-10 40h-20v-20h20zm0 0" data-original="#000000" class="active-path" data-old_color="#000000" fill="#FFC914"/><path d="m130 392h40c5.523438 0 10-4.476562 10-10v-40c0-5.523438-4.476562-10-10-10h-40c-5.523438 0-10 4.476562-10 10v40c0 5.523438 4.476562 10 10 10zm10-40h20v20h-20zm0 0" data-original="#000000" class="active-path" data-old_color="#000000" fill="#FFC914"/><path d="m90 412h-40c-5.523438 0-10 4.476562-10 10v40c0 5.523438 4.476562 10 10 10h40c5.523438 0 10-4.476562 10-10v-40c0-5.523438-4.476562-10-10-10zm-10 40h-20v-20h20zm0 0" data-original="#000000" class="active-path" data-old_color="#000000" fill="#FFC914"/><path d="m180 462v-40c0-5.523438-4.476562-10-10-10h-40c-5.523438 0-10 4.476562-10 10v40c0 5.523438 4.476562 10 10 10h40c5.523438 0 10-4.476562 10-10zm-20-10h-20v-20h20zm0 0" data-original="#000000" class="active-path" data-old_color="#000000" fill="#FFC914"/><path d="m110 80c-5.523438 0-10 4.476562-10 10v20c0 5.523438 4.476562 10 10 10s10-4.476562 10-10v-20c0-5.523438-4.476562-10-10-10zm0 0" data-original="#000000" class="active-path" data-old_color="#000000" fill="#FFC914"/><path d="m160 110v-20c0-5.523438-4.476562-10-10-10s-10 4.476562-10 10v20c0 5.523438 4.476562 10 10 10s10-4.476562 10-10zm0 0" data-original="#000000" class="active-path" data-old_color="#000000" fill="#FFC914"/><path d="m190 120c5.523438 0 10-4.476562 10-10v-20c0-5.523438-4.476562-10-10-10s-10 4.476562-10 10v20c0 5.523438 4.476562 10 10 10zm0 0" data-original="#000000" class="active-path" data-old_color="#000000" fill="#FFC914"/><path d="m110 155c-5.523438 0-10 4.476562-10 10v20c0 5.523438 4.476562 10 10 10s10-4.476562 10-10v-20c0-5.523438-4.476562-10-10-10zm0 0" data-original="#000000" class="active-path" data-old_color="#000000" fill="#FFC914"/><path d="m110 232c-5.523438 0-10 4.476562-10 10v20c0 5.523438 4.476562 10 10 10s10-4.476562 10-10v-20c0-5.523438-4.476562-10-10-10zm0 0" data-original="#000000" class="active-path" data-old_color="#000000" fill="#FFC914"/><path d="m200 222v40c0 5.523438 4.476562 10 10 10h100c5.523438 0 10-4.476562 10-10v-40c0-5.523438-4.476562-10-10-10h-100c-5.523438 0-10 4.476562-10 10zm100 30h-30v-20h30zm-80-20h30v20h-30zm0 0" data-original="#000000" class="active-path" data-old_color="#000000" fill="#FFC914"/></g> </svg>
