<svg height="512pt" viewBox="0 -56 512 512" width="512pt" xmlns="http://www.w3.org/2000/svg"><path d="m96 135h320v128h-320zm0 0" fill="#9eb6f4"/><path d="m392 135h24v128h-24zm0 0" fill="#6d91ef"/><path d="m64 103h32v288h-32zm0 0" fill="#cad8ea"/><path d="m64 367h32v24h-32zm0 0" fill="#96b1d6"/><path d="m416 103h32v288h-32zm0 0" fill="#cad8ea"/><path d="m416 367h32v24h-32zm0 0" fill="#96b1d6"/><path d="m64 71v-48c0-8.835938 7.164062-16 16-16h352c8.835938 0 16 7.164062 16 16v48" fill="#f8e868"/><path d="m64 47h384v24h-384zm0 0" fill="#e0c938"/><path d="m32 71h448v32h-448zm0 0" fill="#ea5172"/><path d="m456 71h24v32h-24zm0 0" fill="#e21743"/><g fill="#ea5172"><path d="m128 295h64v32h-64zm0 0"/><path d="m224 295h64v32h-64zm0 0"/><path d="m320 295h64v32h-64zm0 0"/></g><path d="m202.691406 196.304688 10.605469-10.609376 16.003906 16.003907-10.605469 10.605469zm0 0" fill="#fff"/><path d="m362.691406 196.304688 10.605469-10.605469 16.003906 16-10.609375 10.605469zm0 0" fill="#fff"/><path d="m455 384v-273h32v-47h-32v-41c0-12.957031-10.042969-23-23-23h-352c-12.957031 0-24 10.042969-24 23v41h-32v47h32v72h15v-72h17v273h-17v-185h-15v185h-56v15h352v-15h-249v-49h305v49h-40v15h144v-15zm-384-361c0-4.6875 4.3125-8 9-8h352c4.6875 0 8 3.3125 8 8v41h-369zm-32 73v-17h433v17zm145 224h-49v-17h49zm96 0h-49v-17h49zm96 0h-49v-17h49zm32 0h-17v-32h-79v32h-17v-32h-79v32h-17v-32h-79v32h-17v-177h45.890625l45.804687 45.554688 10.605469-10.484376-35.195312-35.070312h77.894531v113h-128v15h288zm0-64h-145v-113h45.890625l45.804687 45.554688 10.605469-10.484376-35.195312-35.070312h77.894531zm0-128h-305v-17h305zm32 256h-17v-273h17zm0 0"/><path d="m130.695312 172.304688 10.605469-10.609376 48 48-10.605469 10.605469zm0 0"/><path d="m290.691406 172.304688 10.609375-10.605469 48 47.996093-10.609375 10.609376zm0 0"/><path d="m192 32h128v15h-128zm0 0"/></svg>