<svg height="512pt" viewBox="0 0 512 512" width="512pt" xmlns="http://www.w3.org/2000/svg"><path d="m315.734375 384v68.265625c-.027344 9.414063-7.652344 17.039063-17.066406 17.066406h-200.535157c-30.632812 0-55.464843-24.832031-55.464843-55.464843 0-30.632813 24.832031-55.46875 55.464843-55.46875h29.867188c37.683594-.046876 68.21875-30.582032 68.265625-68.265626v-93.867187h-34.132813v93.867187c.003907 9.054688-3.59375 17.738282-9.996093 24.140626-6.398438 6.398437-15.082031 9.996093-24.136719 9.992187h-29.867188c-49.484374 0-89.597656 40.117187-89.597656 89.601563 0 49.484374 40.113282 89.597656 89.597656 89.597656h200.535157c28.265625-.019532 51.175781-22.929688 51.199219-51.199219v-68.265625zm0 0" fill="#00bcd4"/><path d="m59.734375 8.535156h25.597656c4.714844 0 8.535157 3.820313 8.535157 8.53125v102.398438c0 4.714844-3.820313 8.535156-8.535157 8.535156h-25.597656c-28.277344 0-51.199219-22.921875-51.199219-51.199219v-17.066406c0-28.277344 22.921875-51.199219 51.199219-51.199219zm0 0" fill="#f5f5f5"/><path d="m93.867188 17.066406h119.464843v102.398438h-119.464843zm0 0" fill="#02a9f4"/><path d="m264.535156 18.601562v99.328126c.011719 2.507812-1.082031 4.894531-2.992187 6.523437-1.90625 1.625-4.433594 2.332031-6.910157 1.925781l-17.746093-2.988281-23.554688-3.925781v-102.398438l23.554688-3.925781 17.746093-2.984375c2.476563-.40625 5.003907.296875 6.910157 1.925781 1.910156 1.628907 3.003906 4.011719 2.992187 6.519531zm0 0" fill="#283593"/><path d="m238.933594 18.601562v99.328126c.015625 2.011718-.714844 3.957031-2.046875 5.460937l-23.554688-3.925781v-102.398438l23.554688-3.925781c1.332031 1.507813 2.0625 3.453125 2.046875 5.460937zm0 0" fill="#3f51b5"/><path d="m213.332031 119.464844v68.269531c-.027343 9.414063-7.652343 17.039063-17.066406 17.066406h-34.132813c-9.414062-.027343-17.039062-7.652343-17.066406-17.066406v-68.269531zm0 0" fill="#283593"/><path d="m187.734375 119.464844v68.269531c-.027344 9.414063-7.652344 17.039063-17.066406 17.066406h-8.535157c-9.414062-.027343-17.039062-7.652343-17.066406-17.066406v-68.269531zm0 0" fill="#3f51b5"/><path d="m503.464844 247.464844v17.070312c-.019532 28.265625-22.929688 51.175782-51.199219 51.199219h-25.597656c-4.707031-.015625-8.519531-3.828125-8.535157-8.535156v-102.398438c.015626-4.707031 3.828126-8.519531 8.535157-8.535156h25.597656c28.269531.023437 51.179687 22.933594 51.199219 51.199219zm0 0" fill="#cfd8dc"/><path d="m477.867188 247.464844v17.070312c-.023438 28.265625-22.933594 51.175782-51.199219 51.199219-4.707031-.015625-8.519531-3.828125-8.535157-8.535156v-102.398438c.015626-4.707031 3.828126-8.519531 8.535157-8.535156 28.265625.023437 51.175781 22.933594 51.199219 51.199219zm0 0" fill="#f5f5f5"/><path d="m298.667969 204.800781h119.464843v102.398438h-119.464843zm0 0" fill="#0377bc"/><path d="m298.667969 204.800781h93.867187v102.398438h-93.867187zm0 0" fill="#02a9f4"/><path d="m257.402344 314.078125 41.265625-6.878906v-102.398438l-41.265625-6.878906c-2.472656-.410156-5.003906.285156-6.917969 1.90625s-3.019531 4.003906-3.019531 6.511719v99.324218c.003906 2.507813 1.105468 4.886719 3.019531 6.507813s4.445313 2.316406 6.917969 1.90625zm0 0" fill="#3f51b5"/><path d="m366.933594 307.199219v68.265625c-.027344 9.414062-7.652344 17.039062-17.066406 17.070312h-34.132813c-9.414063-.03125-17.039063-7.65625-17.066406-17.070312v-68.265625zm0 0" fill="#283593"/><path d="m341.332031 307.199219v68.265625c-.027343 9.414062-7.652343 17.039062-17.066406 17.070312h-8.53125c-9.414063-.03125-17.039063-7.65625-17.066406-17.070312v-68.265625zm0 0" fill="#3f51b5"/><path d="m85.332031 136.535156h-25.597656c-32.976563-.039062-59.6992188-26.761718-59.734375-59.734375v-17.066406c.0351562-32.976563 26.757812-59.6992188 59.734375-59.734375h25.597656c9.421875.0078125 17.058594 7.644531 17.066407 17.066406v102.398438c-.007813 9.421875-7.644532 17.058594-17.066407 17.070312zm-25.597656-119.46875c-23.554687.027344-42.640625 19.113282-42.667969 42.667969v17.066406c.027344 23.550781 19.113282 42.636719 42.667969 42.664063h25.613281l-.015625-102.398438zm0 0"/><path d="m213.332031 128h-119.464843c-4.714844 0-8.535157-3.820312-8.535157-8.535156v-102.398438c0-4.710937 3.820313-8.53125 8.535157-8.53125h119.464843c4.714844 0 8.535157 3.820313 8.535157 8.53125v102.398438c0 4.714844-3.820313 8.535156-8.535157 8.535156zm-110.933593-17.066406h102.402343v-85.332032h-102.402343zm0 0"/><path d="m256.007812 134.996094c-.941406.003906-1.882812-.074219-2.816406-.230469l-41.261718-6.878906c-4.113282-.6875-7.128907-4.25-7.128907-8.421875v-102.398438c0-4.171875 3.015625-7.730468 7.128907-8.417968l41.261718-6.878907c4.949219-.824219 10.011719.570313 13.839844 3.8125 3.828125 3.246094 6.035156 8.007813 6.035156 13.027344v99.316406c.003906 9.421875-7.632812 17.066407-17.058594 17.070313zm-.007812-17.066406h.019531l-.019531-99.320313-34.132812 5.6875v87.941406zm0 0"/><path d="m196.265625 213.332031h-34.132813c-14.132812-.015625-25.582031-11.464843-25.597656-25.597656v-68.269531c0-4.710938 3.820313-8.53125 8.53125-8.53125h68.265625c4.714844 0 8.535157 3.820312 8.535157 8.53125v68.269531c-.015626 14.132813-11.46875 25.582031-25.601563 25.597656zm-42.664063-85.332031v59.734375c.003907 4.710937 3.820313 8.527344 8.53125 8.53125h34.132813c4.710937-.003906 8.527344-3.820313 8.535156-8.53125v-59.734375zm0 0"/><path d="m452.265625 324.265625h-25.597656c-9.421875-.007813-17.058594-7.644531-17.066407-17.066406v-102.398438c.007813-9.421875 7.644532-17.058593 17.066407-17.066406h25.597656c32.976563.035156 59.699219 26.757813 59.734375 59.730469v17.070312c-.035156 32.972656-26.757812 59.695313-59.734375 59.730469zm-25.597656-119.464844v102.398438h25.597656c23.554687-.027344 42.640625-19.113281 42.667969-42.664063v-17.070312c-.027344-23.550782-19.113282-42.636719-42.667969-42.664063zm0 0"/><path d="m418.132812 315.734375h-119.464843c-4.714844 0-8.535157-3.820313-8.535157-8.535156v-102.398438c0-4.714843 3.820313-8.535156 8.535157-8.535156h119.464843c4.714844 0 8.535157 3.820313 8.535157 8.535156v102.398438c0 4.714843-3.820313 8.535156-8.535157 8.535156zm-110.933593-17.066406h102.402343v-85.335938h-102.402343zm0 0"/><path d="m255.992188 322.730469c-9.425782-.003907-17.0625-7.648438-17.058594-17.074219v-99.3125c0-5.019531 2.207031-9.78125 6.03125-13.027344 3.828125-3.242187 8.890625-4.636718 13.839844-3.8125l41.265624 6.878906c4.113282.6875 7.128907 4.246094 7.128907 8.417969v102.398438c0 4.171875-3.015625 7.730469-7.128907 8.417969l-41.261718 6.878906c-.929688.15625-1.875.234375-2.816406.234375zm.007812-116.394531v99.320312l1.40625 8.421875-1.40625-8.414063 34.132812-5.691406v-87.941406zm0 0"/><path d="m349.867188 401.066406h-34.132813c-14.132813-.015625-25.585937-11.46875-25.601563-25.601562v-68.265625c0-4.710938 3.820313-8.53125 8.535157-8.53125h68.265625c4.710937 0 8.53125 3.820312 8.53125 8.53125v68.265625c-.015625 14.132812-11.464844 25.585937-25.597656 25.601562zm-42.667969-85.332031v59.730469c.007812 4.710937 3.824219 8.527344 8.535156 8.535156h34.132813c4.710937-.007812 8.527343-3.824219 8.53125-8.535156v-59.730469zm0 0"/><path d="m298.667969 512h-200.535157c-54.195312 0-98.132812-43.9375-98.132812-98.132812 0-54.199219 43.9375-98.132813 98.132812-98.132813h29.867188c14.132812-.015625 25.585938-11.46875 25.601562-25.601563v-85.332031c0-4.714843 3.820313-8.535156 8.53125-8.535156 4.714844 0 8.535157 3.820313 8.535157 8.535156v85.332031c-.027344 23.554688-19.117188 42.640626-42.667969 42.667969h-29.867188c-44.769531 0-81.066406 36.292969-81.066406 81.066407 0 44.769531 36.296875 81.066406 81.066406 81.066406h200.535157c23.550781-.027344 42.636719-19.113282 42.664062-42.667969v-59.730469c0-4.714844 3.820313-8.535156 8.535157-8.535156 4.710937 0 8.53125 3.820312 8.53125 8.535156v59.730469c-.035157 32.976563-26.757813 59.699219-59.730469 59.734375zm0 0"/><path d="m298.667969 477.867188h-200.535157c-35.34375 0-64-28.65625-64-64 0-35.347657 28.65625-64 64-64h29.867188c32.972656-.039063 59.695312-26.757813 59.734375-59.734376v-85.332031c0-4.714843 3.820313-8.535156 8.53125-8.535156 4.714844 0 8.535156 3.820313 8.535156 8.535156v85.332031c-.046875 42.398438-34.40625 76.753907-76.800781 76.800782h-29.867188c-25.921874 0-46.933593 21.011718-46.933593 46.933594 0 25.921874 21.011719 46.933593 46.933593 46.933593h200.535157c4.710937-.007812 8.527343-3.824219 8.53125-8.535156v-59.730469c0-4.714844 3.820312-8.535156 8.535156-8.535156 4.710937 0 8.53125 3.820312 8.53125 8.535156v59.730469c-.015625 14.132813-11.46875 25.585937-25.597656 25.601563zm0 0"/></svg>