<svg height="512pt" viewBox="0 0 512 512" width="512pt" xmlns="http://www.w3.org/2000/svg" xmlns:xlink="http://www.w3.org/1999/xlink"><linearGradient id="a" gradientUnits="userSpaceOnUse" x1="0" x2="512" y1="256" y2="256"><stop offset="0" stop-color="#00f38d"/><stop offset="1" stop-color="#009eff"/></linearGradient><path d="m512 256c0 141.386719-114.613281 256-256 256s-256-114.613281-256-256 114.613281-256 256-256 256 114.613281 256 256zm0 0" fill="url(#a)"/><g fill="#fff"><path d="m365.167969 236.035156-88.472657 90.972656c-5.191406 5.214844-9.160156 11.660157-11.476562 18.644532l-.226562.6875-14.765626 64.9375 65.105469-14.574219.707031-.234375c7.023438-2.324219 13.503907-6.320312 18.738282-11.546875l88.453125-90.953125zm-51.648438 127.71875-15.566406-15.574218c.011719-.011719.023437-.027344.03125-.035157l67.507813-69.410156 15.585937 15.550781zm0 0"/><path d="m114.671875 325.390625v-155.316406l139.902344 104.058593 139.898437-104.058593v61.492187l25.910156 25.847656v-97.832031c0-21.429687-17.433593-38.859375-38.863281-38.859375h-253.894531c-21.425781 0-38.859375 17.429688-38.859375 38.859375v165.808594c0 21.425781 17.433594 38.859375 38.859375 38.859375h108.824219l5.53125-24.324219.527343-1.582031h-114.882812c-7.140625 0-12.953125-5.8125-12.953125-12.953125zm18.746094-178.761719h242.3125l-121.15625 90.117188zm0 0"/></g></svg>