<svg height="512pt" viewBox="0 0 512 512" width="512pt" xmlns="http://www.w3.org/2000/svg" xmlns:xlink="http://www.w3.org/1999/xlink"><linearGradient id="a" gradientUnits="userSpaceOnUse" x1="0" x2="512" y1="256" y2="256"><stop offset="0" stop-color="#00f38d"/><stop offset="1" stop-color="#009eff"/></linearGradient><path d="m512 256c0 141.386719-114.613281 256-256 256s-256-114.613281-256-256 114.613281-256 256-256 256 114.613281 256 256zm0 0" fill="url(#a)"/><g fill="#fff"><path d="m320.402344 269.5625-36.5 35.339844c-10.59375-6.09375-29.632813-18.546875-50.285156-39.195313-20.648438-20.652343-33.234376-39.832031-39.425782-50.523437l35.320313-35.78125-91.222657-91.769532-44.984374 44.683594c-17.144532 17.144532-21.585938 43.234375-11.054688 64.925782 15.5625 32.039062 44.269531 80.390624 92.675781 128.789062 48.398438 48.402344 96.75 77.113281 128.789063 92.675781 7.84375 3.808594 16.261718 5.660157 24.625 5.660157 14.761718 0 29.351562-5.769532 40.300781-16.714844l44.769531-44.925782zm27.023437 116.878906c-8.109375 8.109375-20.40625 10.234375-30.601562 5.28125-29.96875-14.558594-75.234375-41.449218-120.6875-86.902344-45.453125-45.453124-72.34375-90.714843-86.898438-120.683593-4.953125-10.195313-2.832031-22.496094 5.246094-30.570313l23.671875-23.515625 49.128906 49.425781-29.363281 29.746094 4.164063 9.351563c.589843 1.328125 14.878906 32.90625 50.320312 68.347656 35.464844 35.464844 66.785156 49.460937 68.101562 50.039063l9.226563 4.054687 30.3125-29.347656 50.992187 51.078125zm0 0"/><path d="m295.609375 226.5625 86.6875-86.6875v44.746094h30v-95.960938h-95.960937v30h44.75l-86.6875 86.6875zm0 0"/></g></svg>