<?xml version="1.0"?>
<svg xmlns="http://www.w3.org/2000/svg" height="512px" viewBox="0 0 512 512" width="512px" class=""><g><path d="m276 366c5.519531 0 10-4.480469 10-10s-4.480469-10-10-10-10 4.480469-10 10 4.480469 10 10 10zm0 0" data-original="#000000" class="active-path" data-old_color="#000000" fill="#FFC914"/><path d="m90 100c16.578125 0 30-13.425781 30-30 0-16.542969-13.457031-30-30-30h-20c-5.523438 0-10 4.476562-10 10v60c0 5.523438 4.476562 10 10 10s10-4.476562 10-10v-10zm-10-40h10c5.515625 0 10 4.484375 10 10 0 5.519531-4.476562 10-10 10h-10zm0 0" data-original="#000000" class="active-path" data-old_color="#000000" fill="#FFC914"/><path d="m502 492h-23v-10c0-16.542969-13.457031-30-30-30v-66.695312c11.425781-2.507813 20.660156-11.59375 23.027344-23.421876.011718-.058593 12.019531-66.097656 12.019531-66.097656 3.640625-18.550781-10.578125-35.785156-29.445313-35.785156h-31.203124c-18.902344 0-33.082032 17.269531-29.445313 35.785156 0 0 12.007813 66.039063 12.019531 66.097656 2.367188 11.832032 11.601563 20.914063 23.027344 23.421876v66.695312c-16.542969 0-30 13.457031-30 30v10h-73v-252h60c16.542969 0 30-13.457031 30-30v-80c0-16.574219-13.425781-30-30-30-16.542969 0-30 13.457031-30 30v50h-120c-27.570312 0-50 22.429688-50 50v106c0 16.542969 13.457031 30 30 30h10v126h-66v-10c0-13.035156-8.359375-24.152344-20-28.28125v-11.71875c0-16.542969-13.457031-30-30-30h-10v-252h50c16.542969 0 30-13.457031 30-30v-100c0-16.542969-13.457031-30-30-30h-120c-16.542969 0-30 13.457031-30 30v100c0 16.542969 13.457031 30 30 30h50v252h-10c-16.542969 0-30 13.457031-30 30v11.71875c-11.640625 4.128906-20 15.246094-20 28.28125v10h-10c-5.523438 0-10 4.476562-10 10s4.476562 10 10 10h492c5.523438 0 10-4.476562 10-10s-4.476562-10-10-10zm-76.398438-133.96875s-12.003906-66.011719-12.015624-66.070312c-1.234376-6.1875 3.507812-11.960938 9.8125-11.960938h31.199218c6.3125 0 11.050782 5.78125 9.8125 11.960938-.007812.058593-12.011718 66.070312-12.011718 66.070312-.960938 4.621094-5.070313 7.96875-9.800782 7.96875h-7.199218c-4.730469 0-8.839844-3.347656-9.796876-7.96875zm-405.601562-228.03125v-100c0-5.515625 4.484375-10 10-10h120c5.515625 0 10 4.484375 10 10v100c0 5.515625-4.484375 10-10 10h-120c-5.515625 0-10-4.484375-10-10zm399 352c0-5.515625 4.484375-10 10-10h20c5.515625 0 10 4.484375 10 10v10h-40zm-173-232c0-5.523438-4.476562-10-10-10s-10 4.476562-10 10v96h-10c-5.515625 0-10-4.484375-10-10v-106c0-16.542969 13.457031-30 30-30h130c5.523438 0 10-4.476562 10-10v-60c0-5.515625 4.484375-10 10-10 5.519531 0 10 4.476562 10 10v80c0 5.515625-4.484375 10-10 10h-70c-5.523438 0-10 4.476562-10 10v262h-20v-96c0-5.523438-4.476562-10-10-10s-10 4.476562-10 10v96h-20zm-176 182h40c5.515625 0 10 4.484375 10 10v10h-60v-10c0-5.515625 4.484375-10 10-10zm-30 50c0-5.515625 4.484375-10 10-10h80c5.515625 0 10 4.484375 10 10v10h-100zm0 0" data-original="#000000" class="active-path" data-old_color="#000000" fill="#FFC914"/><path d="m482 20h-5.355469c-7.054687-12.199219-20.207031-20-34.644531-20s-27.589844 7.800781-34.644531 20h-5.355469c-16.542969 0-30 13.457031-30 30s13.457031 30 30 30h80c16.542969 0 30-13.457031 30-30s-13.457031-30-30-30zm0 40h-80c-5.515625 0-10-4.484375-10-10s4.484375-10 10-10h11.710938c4.234374 0 8.015624-2.671875 9.425781-6.664062 2.820312-7.976563 10.402343-13.335938 18.863281-13.335938s16.042969 5.359375 18.863281 13.335938c1.410157 3.992187 5.1875 6.664062 9.425781 6.664062h11.710938c5.515625 0 10 4.484375 10 10s-4.484375 10-10 10zm0 0" data-original="#000000" class="active-path" data-old_color="#000000" fill="#FFC914"/><path d="m316 140c0-22.054688-17.945312-40-40-40s-40 17.945312-40 40 17.945312 40 40 40 40-17.945312 40-40zm-40 20c-11.027344 0-20-8.972656-20-20s8.972656-20 20-20 20 8.972656 20 20-8.972656 20-20 20zm0 0" data-original="#000000" class="active-path" data-old_color="#000000" fill="#FFC914"/></g> </svg>
