<?xml version="1.0" encoding="iso-8859-1"?>
<!-- Generator: Adobe Illustrator 19.0.0, SVG Export Plug-In . SVG Version: 6.00 Build 0)  -->
<svg version="1.1" id="Capa_1" xmlns="http://www.w3.org/2000/svg" xmlns:xlink="http://www.w3.org/1999/xlink" x="0px" y="0px"
	 viewBox="0 0 512 512" style="enable-background:new 0 0 512 512;" xml:space="preserve">
<path style="fill:#DCF9F7;" d="M512,56.474V466.63c0,5.159-4.182,9.341-9.341,9.341H9.341c-5.159,0-9.341-4.182-9.341-9.341V56.463
	c0-11.286,9.149-20.434,20.434-20.434h471.132C502.845,36.028,512,45.183,512,56.474z"/>
<path style="fill:#B0D1CF;" d="M512,56.474v73.073H0V56.474c0-11.291,9.154-20.446,20.434-20.446h471.132
	C502.845,36.028,512,45.183,512,56.474z"/>
<path style="fill:#F9B767;" d="M511.997,113.203H0.003V56.469c0-11.287,9.15-20.437,20.437-20.437h471.12
	c11.287,0,20.437,9.15,20.437,20.437V113.203z"/>
<path style="fill:#DCF9F7;" d="M344.279,83.77H68.674c-4.267,0-7.726-3.459-7.726-7.726s3.459-7.726,7.726-7.726h275.605
	c4.267,0,7.726,3.459,7.726,7.726S348.546,83.77,344.279,83.77z"/>
<path style="fill:#14C4BB;" d="M381.644,83.015c-4.267,0-7.726-3.459-7.726-7.726v-1.342c0-4.267,3.459-7.726,7.726-7.726
	s7.726,3.459,7.726,7.726v1.342C389.371,79.555,385.911,83.015,381.644,83.015z"/>
<path style="fill:#F96982;" d="M412.485,83.015c-4.267,0-7.726-3.459-7.726-7.726v-1.342c0-4.267,3.459-7.726,7.726-7.726
	s7.726,3.459,7.726,7.726v1.342C420.212,79.555,416.753,83.015,412.485,83.015z"/>
<path style="fill:#EF9D45;" d="M443.326,83.015c-4.267,0-7.726-3.459-7.726-7.726v-1.342c0-4.267,3.459-7.726,7.726-7.726
	s7.726,3.459,7.726,7.726v1.342C451.053,79.555,447.594,83.015,443.326,83.015z"/>
<path style="fill:#B0D1CF;" d="M154.229,302.794c-4.267,0-7.726-3.459-7.726-7.726v-55.151c0-10.411-8.47-18.882-18.882-18.882
	c-10.411,0-18.882,8.47-18.882,18.882v55.151c0,4.267-3.459,7.726-7.726,7.726s-7.726-3.459-7.726-7.726v-55.151
	c0-18.932,15.402-34.335,34.335-34.335s34.335,15.402,34.335,34.335v55.151C161.955,299.335,158.496,302.794,154.229,302.794z"/>
<path style="fill:#F9B767;" d="M161.682,377.665H93.559c-6.04,0-10.936-4.896-10.936-10.936v-68.123
	c0-6.04,4.896-10.936,10.936-10.936h68.123c6.04,0,10.936,4.896,10.936,10.936v68.123
	C172.618,372.77,167.722,377.665,161.682,377.665z"/>
<g>
	<path style="fill:#14C4BB;" d="M417.748,268.565H252.269c-6.423,0-11.63-5.207-11.63-11.63v-22.999
		c0-6.423,5.207-11.63,11.63-11.63h165.479c6.423,0,11.63,5.207,11.63,11.63v22.999
		C429.378,263.358,424.171,268.565,417.748,268.565z"/>
	<path style="fill:#14C4BB;" d="M417.748,345.102H252.269c-6.423,0-11.63-5.207-11.63-11.63v-22.999
		c0-6.423,5.207-11.63,11.63-11.63h165.479c6.423,0,11.63,5.207,11.63,11.63v22.999
		C429.378,339.895,424.171,345.102,417.748,345.102z"/>
</g>
<g>
	<path style="fill:#F9B767;" d="M243.532,193.882c-4.267,0-7.726-3.459-7.726-7.726v-1.342c0-4.267,3.459-7.726,7.726-7.726
		s7.726,3.459,7.726,7.726v1.342C251.258,190.422,247.799,193.882,243.532,193.882z"/>
	<path style="fill:#F9B767;" d="M274.373,193.882c-4.267,0-7.726-3.459-7.726-7.726v-1.342c0-4.267,3.459-7.726,7.726-7.726
		s7.726,3.459,7.726,7.726v1.342C282.099,190.422,278.64,193.882,274.373,193.882z"/>
	<path style="fill:#F9B767;" d="M305.214,193.882c-4.267,0-7.726-3.459-7.726-7.726v-1.342c0-4.267,3.459-7.726,7.726-7.726
		s7.726,3.459,7.726,7.726v1.342C312.94,190.422,309.481,193.882,305.214,193.882z"/>
</g>
<g>
	<path style="fill:#14C4BB;" d="M335.009,384.244H240.64c-4.267,0-7.726-3.459-7.726-7.726s3.459-7.726,7.726-7.726h94.369
		c4.267,0,7.726,3.459,7.726,7.726C342.735,380.785,339.276,384.244,335.009,384.244z"/>
	<path style="fill:#14C4BB;" d="M266.076,409.29h-25.437c-4.267,0-7.726-3.459-7.726-7.726s3.459-7.726,7.726-7.726h25.437
		c4.267,0,7.726,3.459,7.726,7.726C273.803,405.83,270.344,409.29,266.076,409.29z"/>
</g>
<g>
</g>
<g>
</g>
<g>
</g>
<g>
</g>
<g>
</g>
<g>
</g>
<g>
</g>
<g>
</g>
<g>
</g>
<g>
</g>
<g>
</g>
<g>
</g>
<g>
</g>
<g>
</g>
<g>
</g>
</svg>
