<svg height="496pt" viewBox="-96 0 496 496" width="496pt" xmlns="http://www.w3.org/2000/svg"><path d="m232 488h-192c-17.671875 0-32-14.328125-32-32v-416c0-17.671875 14.328125-32 32-32h192c17.671875 0 32 14.328125 32 32v416c0 17.671875-14.328125 32-32 32zm0 0" fill="#6696af"/><path d="m240 456v-416c0-17.671875-14.328125-32-32-32h-168c-17.671875 0-32 14.328125-32 32v416c0 17.671875 14.328125 32 32 32h168c17.671875 0 32-14.328125 32-32zm0 0" fill="#88c8e9"/><path d="m72 136h224v224h-224zm0 0" fill="#ccc"/><path d="m104 168h48v48h-48zm0 0" fill="#a68367"/><path d="m104 168h24v48h-24zm0 0" fill="#ddaf89"/><path d="m216 168h48v48h-48zm0 0" fill="#a68367"/><path d="m216 168h24v48h-24zm0 0" fill="#ddaf89"/><path d="m104 280h48v48h-48zm0 0" fill="#a68367"/><path d="m104 280h24v48h-24zm0 0" fill="#ddaf89"/><path d="m56 488v-16c0-8.839844 7.160156-16 16-16h128c8.839844 0 16 7.160156 16 16v16" fill="#373c43"/><path d="m168 456h-96c-8.839844 0-16 7.160156-16 16v16h128v-16c0-8.839844-7.160156-16-16-16zm0 0" fill="#495059"/><path d="m240 8-48 48h-112l-48-48zm0 0" fill="#373c43"/><path d="m32 8 48 48h80l48-48zm0 0" fill="#495059"/><path d="m232 496h-192c-22.054688 0-40-17.945312-40-40v-416c0-22.054688 17.945312-40 40-40h192c22.054688 0 40 17.945312 40 40v96h-16v-96c0-13.230469-10.769531-24-24-24h-192c-13.230469 0-24 10.769531-24 24v416c0 13.230469 10.769531 24 24 24h192c13.230469 0 24-10.769531 24-24v-96h16v96c0 22.054688-17.945312 40-40 40zm0 0"/><path d="m192 64h-112c-2.121094 0-4.160156-.839844-5.65625-2.34375l-48-48 11.3125-11.3125 45.65625 45.65625h105.375l45.65625-45.65625 11.3125 11.3125-48 48c-1.496094 1.503906-3.535156 2.34375-5.65625 2.34375zm0 0"/><path d="m224 488h-16v-16c0-4.414062-3.59375-8-8-8h-128c-4.40625 0-8 3.585938-8 8v16h-16v-16c0-13.230469 10.769531-24 24-24h128c13.230469 0 24 10.769531 24 24zm0 0"/><path d="m152 224h-48c-4.414062 0-8-3.574219-8-8v-48c0-4.425781 3.585938-8 8-8h48c4.414062 0 8 3.574219 8 8v48c0 4.425781-3.585938 8-8 8zm-40-16h32v-32h-32zm0 0"/><path d="m264 224h-48c-4.414062 0-8-3.574219-8-8v-48c0-4.425781 3.585938-8 8-8h48c4.414062 0 8 3.574219 8 8v48c0 4.425781-3.585938 8-8 8zm-40-16h32v-32h-32zm0 0"/><path d="m152 336h-48c-4.414062 0-8-3.574219-8-8v-48c0-4.425781 3.585938-8 8-8h48c4.414062 0 8 3.574219 8 8v48c0 4.425781-3.585938 8-8 8zm-40-16h32v-32h-32zm0 0"/><path d="m176 160h16v176h-16zm0 0"/><path d="m96 240h176v16h-176zm0 0"/><path d="m224 336h-16v-56c0-4.425781 3.585938-8 8-8h56v16h-48zm0 0"/><path d="m240 296h16v40h-16zm0 0"/><path d="m304 192h-16v-48h-48v-16h56c4.414062 0 8 3.574219 8 8zm0 0"/><path d="m80 192h-16v-56c0-4.425781 3.585938-8 8-8h56v16h-48zm0 0"/><path d="m296 368h-56v-16h48v-48h16v56c0 4.425781-3.585938 8-8 8zm0 0"/><path d="m128 368h-56c-4.414062 0-8-3.574219-8-8v-56h16v48h48zm0 0"/></svg>